<svg width="101" height="100" viewBox="0 0 101 100" fill="none" xmlns="http://www.w3.org/2000/svg">
<g clip-path="url(#clip0_2_1470)">
<path d="M38.6433 74.9213C39.6089 74.2905 40.4818 74.0754 41.0817 74.0094C40.0054 72.3276 39.3576 70.17 39.3576 67.82C39.3576 62.4645 42.7196 58.1078 46.8524 58.1078C50.9851 58.1078 54.3465 62.4645 54.3465 67.82C54.3465 70.1704 53.6987 72.3279 52.6225 74.0097C53.2278 74.0765 54.0991 74.2926 55.0674 74.9255C56.3737 75.7713 57.5622 77.1982 58.5027 79.0481C58.9887 80.0101 59.4171 81.0954 59.7956 82.293H61.393C61.5006 82.1203 61.6064 81.942 61.7167 81.7756C64.0875 78.1779 66.4414 77.1643 67.3394 76.8948C66.8816 76.3392 66.476 75.7042 66.1354 74.9954C65.1161 72.8729 64.7967 70.3636 65.2341 67.9288C65.9999 63.6678 68.8904 60.6923 72.262 60.6923C72.8125 60.6923 73.3649 60.7742 73.904 60.9378C73.922 60.9434 73.9397 60.9505 73.9577 60.9561V52.9797H18.3604V82.293H33.8993C35.2919 77.8374 37.2416 75.8222 38.6433 74.9213Z" fill="url(#paint0_linear_2_1470)"/>
<path d="M79.6814 51.2138V49.4479V39.9123H71.3009V35.6488C72.3384 35.475 73.1405 34.3286 73.1405 32.9371C73.1405 31.4256 72.1951 30.2001 71.0283 30.2001C69.8622 30.2001 68.9162 31.4256 68.9162 32.9371C68.9162 34.3286 69.7183 35.4754 70.7558 35.6488V39.9123H66.1227V35.6488C67.1602 35.475 67.9623 34.3286 67.9623 32.9371C67.9623 31.4256 67.0169 30.2001 65.8501 30.2001C64.684 30.2001 63.738 31.4256 63.738 32.9371C63.738 34.3286 64.5401 35.4754 65.5776 35.6488V39.9123H61.1756V15.5434H59.5856V13.7334H52.6812V15.5434H51.0918V39.9123H49.3655V15.5434H47.7756V13.7334H40.8711V15.5434H39.2817V39.9123H37.5555V15.5434H35.9655V13.7334H29.0613V15.5434H27.4713V39.9123H23.4705V35.6488C24.5081 35.475 25.3101 34.3286 25.3101 32.9371C25.3101 31.4256 24.3647 30.2001 23.198 30.2001C22.0318 30.2001 21.0858 31.4256 21.0858 32.9371C21.0858 34.3286 21.8879 35.4754 22.9255 35.6488V39.9123H14.5V49.4479V51.2138H79.6814ZM52.6812 18.722H59.5856V20.3702H52.6812V18.722ZM52.6812 21.9888H59.5856V23.6371H52.6812V21.9888ZM52.6812 25.2556H59.5856V26.9042H52.6812V25.2556ZM52.6812 28.5228H59.5856V30.1711H52.6812V28.5228ZM52.6812 31.7897H59.5856V33.4379H52.6812V31.7897ZM52.6812 36.6603H59.5856V39.9123H52.6812V36.6603ZM40.8711 18.722H47.7756V20.3702H40.8711V18.722ZM40.8711 21.9888H47.7756V23.6371H40.8711V21.9888ZM40.8711 25.2556H47.7756V26.9042H40.8711V25.2556ZM40.8711 28.5228H47.7756V30.1711H40.8711V28.5228ZM40.8711 31.7897H47.7756V33.4379H40.8711V31.7897ZM40.8711 36.6603H47.7756V39.9123H40.8711V36.6603ZM29.0613 18.722H35.9652V20.3702H29.0613V18.722ZM29.0613 21.9888H35.9652V23.6371H29.0613V21.9888ZM29.0613 25.2556H35.9652V26.9042H29.0613V25.2556ZM29.0613 28.5228H35.9652V30.1711H29.0613V28.5228ZM29.0613 31.7897H35.9652V33.4379H29.0613V31.7897ZM29.0613 36.6603H35.9652V39.9123H29.0613V36.6603Z" fill="url(#paint1_linear_2_1470)"/>
<path d="M44.346 75.0717H49.3582C51.4949 73.8296 52.9843 71.0508 52.9843 67.8197C52.9843 63.4308 50.2394 59.8733 46.8523 59.8733C43.4657 59.8733 40.7202 63.4308 40.7202 67.8197C40.7202 71.0512 42.2096 73.8299 44.346 75.0717Z" fill="url(#paint2_linear_2_1470)"/>
<path d="M70.4211 77.2552C71.0008 77.1719 71.6268 77.1143 72.2656 77.1115C72.9066 77.1143 73.534 77.1719 74.1147 77.2559C75.9827 76.4486 77.4934 74.4408 77.9722 71.7733C78.7056 67.6899 76.7464 63.609 73.5956 62.6576C70.4442 61.7072 67.2954 64.2468 66.5611 68.3299C65.8684 72.1847 67.5772 76.0364 70.4211 77.2552Z" fill="url(#paint3_linear_2_1470)"/>
<path d="M59.8316 88.986C59.2743 84.9037 58.3997 82.0677 57.3649 80.019C56.4696 78.2577 55.422 77.1286 54.4547 76.5024C53.4875 75.8706 52.6391 75.7452 52.1556 75.7477C51.9809 75.7477 51.8485 75.7629 51.7623 75.7773H41.9437C41.8581 75.7636 41.7248 75.7473 41.5488 75.7473C41.0656 75.7456 40.2164 75.8713 39.2497 76.5028C37.7837 77.4447 36.2033 79.5054 35.0979 83.1565C33.9843 86.803 33.2354 92.0685 33.2236 100H37.5837C37.5842 91.5264 38.5408 86.7546 39.4819 84.2602V100H54.2239V84.2764C54.3852 84.7059 54.5479 85.1982 54.7087 85.7728C55.4727 88.5152 56.1145 93.0065 56.1199 99.9997H60.7866C62.0135 92.7829 63.7398 88.6275 65.2079 86.2768L63.1505 99.9997H81.3837L79.3275 86.286C79.3705 86.3549 79.4133 86.4184 79.4569 86.4905C80.8951 88.8726 82.5576 92.9956 83.7477 99.9997H87.3689C85.9855 91.2565 83.8521 86.0504 81.783 82.9252C79.4842 79.4373 77.2717 78.6818 76.6809 78.5593C76.1731 78.3965 74.3016 77.8261 72.2671 77.8176C70.2321 77.8258 68.3606 78.3965 67.8529 78.5593C67.262 78.6822 65.0504 79.4373 62.7513 82.9252C61.7628 84.4181 60.7604 86.3866 59.8316 88.986Z" fill="url(#paint4_linear_2_1470)"/>
</g>
<defs>
<linearGradient id="paint0_linear_2_1470" x1="0.489776" y1="52.9797" x2="77.8853" y2="75.2211" gradientUnits="userSpaceOnUse">
<stop stop-color="#FFAC30"/>
<stop offset="1" stop-color="#FD01A7"/>
</linearGradient>
<linearGradient id="paint1_linear_2_1470" x1="-6.45115" y1="13.7334" x2="85.402" y2="37.9364" gradientUnits="userSpaceOnUse">
<stop stop-color="#FFAC30"/>
<stop offset="1" stop-color="#FD01A7"/>
</linearGradient>
<linearGradient id="paint2_linear_2_1470" x1="36.7782" y1="59.8733" x2="54.9884" y2="62.0997" gradientUnits="userSpaceOnUse">
<stop stop-color="#FFAC30"/>
<stop offset="1" stop-color="#FD01A7"/>
</linearGradient>
<linearGradient id="paint3_linear_2_1470" x1="62.6405" y1="62.4583" x2="80.0505" y2="64.5473" gradientUnits="userSpaceOnUse">
<stop stop-color="#FFAC30"/>
<stop offset="1" stop-color="#FD01A7"/>
</linearGradient>
<linearGradient id="paint4_linear_2_1470" x1="15.8198" y1="75.7473" x2="89.0405" y2="100.515" gradientUnits="userSpaceOnUse">
<stop stop-color="#FFAC30"/>
<stop offset="1" stop-color="#FD01A7"/>
</linearGradient>
<clipPath id="clip0_2_1470">
<rect width="100" height="100" fill="white" transform="translate(0.5)"/>
</clipPath>
</defs>
</svg>
