<svg width="101" height="100" viewBox="0 0 101 100" fill="none" xmlns="http://www.w3.org/2000/svg">
<g clip-path="url(#clip0_2_1453)">
<path d="M68.3516 24.1212C65.1289 24.9219 60.8906 32.3829 57.4922 38.379C54.6406 43.379 52.8438 46.4844 51.4766 47.0899C51.1641 47.2266 50.8125 47.3048 50.4609 47.3048C48.3516 47.3048 45.6953 44.8438 42.707 42.0508C40.168 39.6876 37.5703 37.2462 35.207 36.2696C30.9492 34.5313 21.5156 43.1837 18.0781 46.836V49.2774C18.0781 53.0665 21.1641 56.1524 24.9336 56.1524H74.8945C78.6836 56.1524 81.75 53.0665 81.75 49.2774V34.1407C80.793 33.2227 75.0117 27.6563 69.8359 24.3555C69.3672 24.0626 68.8984 23.9844 68.3516 24.1212Z" fill="url(#paint0_linear_2_1453)"/>
<path d="M54.1523 28.2031C52.5703 31.0937 49.582 32.8906 46.3398 32.8906C41.418 32.8906 37.3945 28.8672 37.3945 23.9062C37.3945 18.9648 41.3984 14.9219 46.3398 14.9219C47.2578 14.9219 48.1953 15.0977 49.2109 15.4297L50.7148 15.9375L49.2305 16.543C47.043 17.4414 45.6367 19.5508 45.6367 21.8945C45.6367 25.7422 49.4258 28.7891 53.4102 27.3047L54.9141 26.7383L54.1523 28.2031Z" fill="url(#paint1_linear_2_1453)"/>
<path d="M85.5 0H15.1484C9.28906 0 4.50391 4.78516 4.50391 10.625V59.668C4.50391 65.5078 9.28906 70.293 15.1484 70.293H85.5C91.3594 70.293 96.1445 65.5078 96.1445 59.668V10.625C96.1445 4.78516 91.3594 0 85.5 0ZM88.3711 54.9219C88.3711 59.9414 84.4258 62.6953 79.4062 62.6953H21.5938C16.5742 62.6953 12.1602 59.9609 12.1602 54.9414V16.8164C12.1602 11.7969 16.2812 7.85156 21.3008 7.85156H79.1133C84.1328 7.85156 88.3711 11.7773 88.3711 16.7969V54.9219Z" fill="url(#paint2_linear_2_1453)"/>
<path d="M40.0898 72.6758C40.2266 78.2031 44.6797 82.6563 50.1875 82.6563C55.6953 82.6563 60.168 78.2031 60.2852 72.6758H40.0898Z" fill="url(#paint3_linear_2_1453)"/>
<path d="M63.0781 99.6875L61.7891 99.9805C60.6953 100.234 59.5039 99.5508 59.1719 98.457L52.6875 77.5391C52.2969 76.2695 53.0195 74.9805 54.3086 74.6875L55.5977 74.3945C56.6914 74.1406 57.8828 74.8242 58.2148 75.918L64.6992 96.8555C65.1094 98.1055 64.3672 99.3945 63.0781 99.6875Z" fill="url(#paint4_linear_2_1453)"/>
<path d="M37.5706 99.6875L38.8596 99.9805C39.9534 100.234 41.1448 99.5508 41.4768 98.457L47.9807 77.5391C48.3713 76.2695 47.6487 74.9805 46.3596 74.6875L45.0706 74.3945C43.9768 74.1406 42.7854 74.8242 42.4534 75.918L35.969 96.8555C35.5588 98.1055 36.2815 99.3945 37.5706 99.6875Z" fill="url(#paint5_linear_2_1453)"/>
</g>
<defs>
<linearGradient id="paint0_linear_2_1453" x1="-2.38784" y1="24.0559" x2="85.6173" y2="50.5076" gradientUnits="userSpaceOnUse">
<stop stop-color="#FFAC30"/>
<stop offset="1" stop-color="#FD01A7"/>
</linearGradient>
<linearGradient id="paint1_linear_2_1453" x1="31.7633" y1="14.9219" x2="57.6019" y2="18.739" gradientUnits="userSpaceOnUse">
<stop stop-color="#FFAC30"/>
<stop offset="1" stop-color="#FD01A7"/>
</linearGradient>
<linearGradient id="paint2_linear_2_1453" x1="-24.952" y1="2.30716e-06" x2="107.967" y2="26.2555" gradientUnits="userSpaceOnUse">
<stop stop-color="#FFAC30"/>
<stop offset="1" stop-color="#FD01A7"/>
</linearGradient>
<linearGradient id="paint3_linear_2_1453" x1="33.5985" y1="72.6758" x2="61.4185" y2="81.2051" gradientUnits="userSpaceOnUse">
<stop stop-color="#FFAC30"/>
<stop offset="1" stop-color="#FD01A7"/>
</linearGradient>
<linearGradient id="paint4_linear_2_1453" x1="48.6502" y1="74.3416" x2="66.9871" y2="75.6642" gradientUnits="userSpaceOnUse">
<stop stop-color="#FFAC30"/>
<stop offset="1" stop-color="#FD01A7"/>
</linearGradient>
<linearGradient id="paint5_linear_2_1453" x1="31.9221" y1="74.3416" x2="50.2617" y2="75.6646" gradientUnits="userSpaceOnUse">
<stop stop-color="#FFAC30"/>
<stop offset="1" stop-color="#FD01A7"/>
</linearGradient>
<clipPath id="clip0_2_1453">
<rect width="100" height="100" fill="white" transform="translate(0.5)"/>
</clipPath>
</defs>
</svg>
